<svg aria-hidden="true" style="position:absolute;width:0;height:0;overflow:hidden" xmlns="http://www.w3.org/2000/svg"><defs><symbol id="icon-logo-six" viewBox="0 0 32 32"><path d="M16.128 15.218c-.134-.178-.198-.389-.183-.6v-.87c0-.267.061-.47.182-.608s.329-.208.624-.207c.277 0 .473.059.59.177.127.151.188.335.174.521v.205h-.495v-.207c.002-.068-.003-.136-.014-.203-.007-.046-.032-.088-.071-.12-.051-.035-.115-.051-.179-.047-.068-.004-.135.013-.189.05-.043.036-.072.082-.082.133-.014.071-.021.143-.019.215v1.056c-.008.102.014.204.064.297.025.031.059.056.099.072s.084.021.128.017c.063.005.126-.013.175-.048.04-.035.066-.08.074-.128.012-.07.017-.141.015-.212v-.214h.495v.196c.014.194-.046.386-.171.547-.114.129-.308.194-.593.194s-.5-.069-.623-.213zM18.191 15.226c-.125-.136-.188-.333-.188-.594v-.916c0-.259.063-.454.188-.587s.334-.199.628-.198c.291 0 .499.066.625.198s.189.329.189.587v.916c0 .259-.064.457-.191.593s-.334.205-.623.205c-.288 0-.502-.069-.628-.204zm.858-.219c.045-.085.065-.178.059-.271v-1.121c.006-.091-.014-.182-.058-.266-.025-.032-.06-.057-.101-.073s-.086-.021-.131-.016c-.044-.005-.09 0-.131.016s-.076.041-.102.073c-.045.083-.066.174-.059.266v1.126c-.006.093.014.186.059.271.029.029.064.051.104.067s.083.024.127.024.087-.008.127-.024.076-.039.104-.067v-.005zM20.227 12.958h.533l.401 1.689.41-1.689h.519l.052 2.438h-.384l-.041-1.695-.396 1.695h-.308l-.41-1.701-.038 1.701h-.388l.048-2.438zM22.741 12.958h.831c.479 0 .718.231.718.692 0 .442-.252.663-.756.662h-.283v1.084h-.513l.003-2.438zm.71 1.042c.051.006.102.002.151-.012s.093-.036.131-.065c.059-.082.085-.179.074-.275.003-.074-.006-.149-.025-.221-.007-.024-.02-.047-.038-.067s-.04-.037-.065-.049c-.071-.029-.15-.043-.229-.039h-.199v.729h.199zM25.029 12.958h.551l.565 2.438h-.478l-.112-.562h-.491l-.115.562h-.485l.565-2.438zm.471 1.594-.192-1.023-.192 1.023h.384zM26.601 12.958h.359l.687 1.391v-1.391h.426v2.438h-.342l-.691-1.452v1.452h-.44l.001-2.438zM29.07 14.467l-.571-1.505h.481l.349.967.327-.967h.471l-.564 1.505v.93h-.492v-.93zM16.92 16.462v.128h-.418v.991h-.175v-.991h-.42v-.128h1.014zM18.232 17.581h-.135c-.014.001-.027-.003-.038-.011-.01-.006-.018-.015-.023-.026l-.121-.266h-.58l-.121.266c-.003.011-.01.021-.018.03-.011.007-.024.011-.038.011h-.135l.513-1.118h.178l.519 1.114zm-.849-.415h.484l-.205-.455c-.015-.034-.028-.07-.038-.105-.007.021-.013.042-.019.059l-.018.047-.203.454zM19.116 17.471c.032.001.064.001.096 0 .028-.002.055-.007.082-.013.025-.005.05-.012.074-.02.023-.008.045-.018.069-.027v-.252h-.205c-.005 0-.01 0-.015-.002s-.009-.004-.013-.007c-.003-.003-.006-.006-.008-.009s-.003-.007-.002-.011v-.086h.398v.429c-.032.02-.067.038-.103.053s-.075.028-.114.038c-.042.011-.085.018-.128.023-.05.005-.1.007-.15.007-.088.001-.176-.013-.258-.042-.077-.027-.147-.066-.205-.117-.057-.051-.102-.111-.132-.177-.032-.074-.048-.153-.047-.232-.001-.08.015-.159.046-.234.029-.066.075-.127.132-.177s.128-.09.205-.116c.088-.029.181-.043.275-.042.048 0 .095.003.143.01.042.006.083.015.122.028.036.012.07.026.103.044s.061.037.089.058l-.049.069c-.004.006-.01.012-.017.015s-.015.006-.023.006c-.011 0-.022-.003-.032-.009-.015-.007-.032-.016-.05-.027-.022-.012-.045-.022-.069-.03-.031-.011-.062-.019-.094-.025-.043-.007-.087-.01-.13-.01-.068-.001-.135.01-.198.031-.057.02-.109.05-.151.089-.043.04-.075.088-.095.139-.046.121-.046.252 0 .373.022.053.057.101.103.141.042.038.093.069.15.089.065.019.134.027.203.022zM20.751 17.453h.56v.128h-.731v-1.118h.175l-.004.991zM21.893 17.581h-.175v-1.118h.175v1.118zM22.545 16.468c.01.005.02.012.027.02l.75.843c-.001-.013-.001-.027 0-.04V16.458h.153v1.123h-.088c-.013.001-.026-.001-.038-.006-.011-.006-.02-.013-.028-.021l-.749-.842V17.582h-.147v-1.118h.091c.01 0 .02.002.029.005zM24.766 16.462v.123h-.622v.369h.504v.119h-.504v.382h.622v.123h-.802v-1.116h.802zM6.388 9.556l7.787 1.909v6.689l-7.787-1.908v-6.69zm-.499-.57v7.585l8.785 2.154v-7.584L5.889 8.986z"/><path   d="m10.597 22.247-8.786-2.156v-7.584l8.786 2.155v7.585zM6.035 9.47l7.686 1.885-3.268 2.823-7.687-1.886 3.27-2.822zm-.146-.484-4.078 3.52 8.786 2.155 4.077-3.52-8.785-2.155zM11.092 21.82l3.582-3.094-3.582-.879v3.973z"/></symbol><symbol id="icon-logo-five" viewBox="0 0 32 32"><path  d="M8.078 20.448c.074.083.113.188.111.295.004.07-.01.14-.039.204s-.075.122-.132.168c-.143.099-.32.147-.499.136h-.877v-1.869h.859c.17-.01.338.034.476.124.055.043.099.096.128.157s.042.127.038.193c.005.103-.03.204-.1.286-.067.074-.159.126-.261.146.116.019.221.076.296.16zm-1.029-.282h.367c.083.006.166-.016.233-.062.028-.023.049-.051.063-.083s.019-.066.016-.1c.003-.034-.003-.068-.016-.099s-.034-.06-.061-.083c-.069-.047-.154-.069-.24-.063H7.05v.49zm.637.717c.029-.023.053-.053.068-.086s.022-.069.019-.104c.002-.036-.005-.072-.02-.105s-.039-.063-.069-.086c-.072-.049-.16-.073-.249-.068H7.05v.514h.39c.088.005.175-.018.246-.065zM9.833 21.252l-.478-.73h-.18v.73h-.411v-1.869h.778c.196-.013.39.044.542.159.109.101.174.235.185.377s-.034.282-.127.396c-.096.101-.227.168-.371.19l.509.747h-.447zm-.657-.985h.336c.233 0 .35-.094.35-.283.002-.039-.004-.077-.019-.113s-.038-.069-.067-.097c-.074-.056-.169-.083-.264-.076h-.34l.004.569zM12.079 20.876h-.819l-.145.376h-.431l.752-1.848h.466l.749 1.848h-.431l-.142-.376zm-.11-.283-.299-.789-.299.789h.598zM14.89 21.252h-.408l-.914-1.271v1.271h-.407v-1.869h.407l.914 1.278v-1.278h.408v1.869zM17.217 20.805c-.084.141-.213.256-.369.33-.178.082-.375.123-.573.118h-.726v-1.869h.726c.198-.005.395.035.573.115.156.072.285.186.369.326.084.152.128.32.128.49s-.044.338-.128.49zm-.466-.045c.116-.124.18-.282.18-.446s-.064-.322-.18-.446c-.141-.112-.324-.17-.511-.159h-.283v1.21h.283c.186.011.37-.046.511-.159zM12.334 8.986s5.264 1.82 5.153 4.453v4.454s-5.261-1.821-5.151-4.454l-.002-4.453zM22.177 16.851c.994-.627 2.144-1.015 3.345-1.129v-1.394c-1.383.488-2.557 1.373-3.345 2.523z"/><path  d="M21.579 17.271c.814-1.5 2.225-2.658 3.942-3.235v-4.018s-7.497 2.592-7.339 6.342v6.341s.334-.116.86-.333c0-.203 0-.407.024-.613.155-1.741 1.059-3.354 2.513-4.485z"/><path  d="M20.866 19.627c.039-.44.127-.875.262-1.298-.905.977-1.454 2.189-1.568 3.465-.011.121-.017.241-.02.365.426-.187.921-.421 1.442-.696-.133-.604-.172-1.222-.117-1.836zM21.165 19.649c-.05.556-.019 1.115.093 1.663 2.048-1.122 4.35-2.856 4.261-4.952v-.183c-1.463.15-2.833.736-3.897 1.667-.249.577-.403 1.185-.457 1.804z"/></symbol><symbol id="icon-logo-four" viewBox="0 0 32 32"><path  d="M7.289 13.314h-.001c-.724 0-1.311.522-1.311 1.165v.001c0 .643.587 1.165 1.311 1.165h.001c.724 0 1.311-.522 1.311-1.165v-.001c0-.643-.587-1.165-1.311-1.165zM16.965 12.942c-.002-.894-.402-1.75-1.113-2.382s-1.675-.988-2.68-.99c-1.006.002-1.97.357-2.681.989s-1.112 1.489-1.114 2.383v4.928s7.587-.751 7.588-4.927v-.001zM3.321 19.487c.002.622.28 1.218.775 1.657s1.165.688 1.865.689c.699-.002 1.37-.25 1.864-.689s.773-1.035.775-1.657v-3.429s-5.28.523-5.28 3.428zm2.639.614c-.137 0-.27-.036-.384-.104s-.202-.163-.255-.276c-.052-.112-.066-.236-.039-.355s.093-.229.189-.315c.097-.086.22-.144.354-.168s.273-.012.399.035.234.125.31.226.117.22.117.341c0 .081-.017.161-.052.236s-.085.143-.15.2c-.064.057-.141.103-.225.134s-.174.047-.265.047V20.1zM11.296 19.763h-.509v.526h-.265v-1.288h.838v.215h-.573v.333h.509v.214zm1.275-.089c0 .127-.022.238-.067.333s-.109.169-.193.221c-.083.052-.179.078-.287.078-.107 0-.202-.026-.286-.077s-.149-.124-.195-.219c-.046-.096-.069-.205-.07-.329v-.064c0-.127.023-.238.068-.334s.111-.171.194-.222c.084-.052.179-.078.287-.078s.203.026.286.078c.084.051.148.125.194.222s.069.207.069.333v.058zm-.269-.058c0-.135-.024-.238-.072-.308s-.117-.105-.207-.105c-.089 0-.158.035-.206.104s-.073.17-.073.304v.063c0 .131.024.233.072.306s.118.109.209.109c.089 0 .157-.035.205-.104s.072-.172.072-.306v-.063zm1.13.335c0-.05-.018-.088-.053-.115s-.099-.055-.191-.085c-.092-.03-.165-.06-.218-.088-.146-.079-.219-.185-.219-.319 0-.07.019-.131.058-.186s.096-.098.169-.128c.074-.031.156-.046.248-.046s.174.017.246.05c.072.033.128.08.167.141s.06.13.06.207h-.265c0-.059-.019-.105-.056-.137s-.089-.049-.157-.049c-.065 0-.115.014-.151.042s-.054.063-.054.108c0 .042.021.077.063.105s.105.055.187.08c.151.045.261.102.33.169s.104.151.104.251c0 .111-.042.199-.127.263s-.198.095-.341.095c-.099 0-.189-.018-.271-.054s-.144-.086-.187-.149c-.042-.063-.064-.136-.064-.219h.266c0 .142.085.213.255.213.063 0 .112-.013.148-.038s.053-.062.053-.108zm1.416-.735h-.394v1.073h-.265v-1.073H13.8v-.215h1.049v.215zm.927.515h-.509v.345h.598v.213h-.863v-1.288h.861v.215h-.596v.307h.509v.208zm.72.086h-.211v.471h-.265V19h.479c.152 0 .269.034.352.102s.124.164.124.287c0 .088-.019.161-.057.22s-.095.105-.172.14l.279.526v.012h-.285l-.241-.471zm-.211-.214h.214c.067 0 .118-.017.155-.05s.055-.081.055-.141c0-.061-.017-.108-.052-.143s-.087-.052-.158-.052h-.213v.387zm1.608.232v.454h-.265v-1.288h.502c.097 0 .182.018.255.053s.13.086.17.151c.04.065.059.139.059.222 0 .126-.043.226-.13.299s-.206.109-.358.109h-.233zm0-.215h.237c.07 0 .124-.017.16-.05s.056-.08.056-.142c0-.063-.019-.114-.056-.153s-.088-.059-.154-.06h-.243v.404zm1.679.111h-.509v.345h.598v.213h-.863v-1.288h.861v.215h-.596v.307h.509v.208zm1.231-.515h-.394v1.073h-.265v-1.073h-.389v-.215h1.049v.215zm.927.515h-.509v.345h.598v.213h-.863v-1.288h.861v.215h-.596v.307h.509v.208zm.721.086h-.211v.471h-.265V19h.478c.152 0 .269.034.352.102s.124.164.124.287c0 .088-.019.161-.057.22s-.095.105-.172.14l.279.526v.012h-.285l-.241-.471zm-.212-.214h.214c.067 0 .118-.017.155-.05s.055-.081.055-.141c0-.061-.017-.108-.052-.143s-.087-.052-.158-.052h-.213v.387zm1.559.348c0-.05-.018-.088-.053-.115s-.099-.055-.191-.085c-.092-.03-.165-.06-.218-.088-.146-.079-.219-.185-.219-.319 0-.07.019-.131.058-.186s.096-.098.169-.128c.074-.031.156-.046.248-.046s.174.017.246.05c.072.033.128.08.167.141s.06.13.06.207h-.265c0-.059-.019-.105-.056-.137s-.089-.049-.157-.049c-.065 0-.115.014-.151.042s-.054.063-.054.108c0 .042.021.077.063.105s.105.055.187.08c.151.045.261.102.33.169s.103.151.103.251c0 .111-.042.199-.126.263s-.198.095-.34.095c-.099 0-.189-.018-.271-.054s-.144-.086-.187-.149c-.042-.063-.064-.136-.064-.219h.266c0 .142.085.213.255.213.063 0 .112-.013.148-.038s.053-.062.053-.108z"/></symbol><symbol id="icon-logo-three" viewBox="0 0 32 32"><path  d="M10.991 21.766c.005 0 .01.001.014.003s.008.004.012.007l.066.063c-.051.051-.114.092-.185.119-.083.03-.173.045-.263.043-.085.002-.169-.012-.247-.04-.071-.026-.134-.064-.186-.113-.053-.051-.094-.11-.12-.175-.029-.072-.043-.148-.042-.224-.001-.077.014-.153.045-.225.029-.065.072-.124.128-.175.056-.049.123-.088.198-.114.081-.027.167-.041.254-.04.081-.002.161.011.236.036.065.025.125.059.177.101l-.055.067c-.004.005-.009.009-.014.012-.007.004-.014.006-.022.005s-.017-.003-.024-.007l-.03-.018-.041-.023c-.018-.008-.036-.016-.055-.022-.024-.008-.049-.014-.075-.018-.032-.005-.065-.008-.098-.007-.063-.001-.125.009-.183.03-.054.019-.103.048-.143.084-.041.039-.073.085-.093.134-.023.057-.035.117-.034.177-.001.061.01.122.034.18.02.049.051.095.091.134.038.036.084.065.137.083.054.019.111.029.17.029.034 0 .067-.001.1-.006.054-.006.106-.022.152-.048.023-.013.045-.028.065-.044.008-.007.02-.011.031-.011zM12.892 21.45c.001.076-.014.151-.044.222-.027.064-.069.123-.124.173s-.121.088-.195.113c-.161.053-.339.053-.5 0-.073-.026-.139-.065-.193-.114-.055-.05-.097-.11-.125-.174-.059-.144-.059-.302 0-.446.028-.065.071-.125.125-.175.055-.048.121-.085.193-.109.161-.054.339-.054.5 0 .073.026.139.064.194.114s.096.108.124.172c.031.072.046.148.044.224zm-.173 0c.001-.061-.009-.121-.031-.179-.018-.049-.048-.095-.088-.134-.039-.037-.086-.066-.139-.084-.117-.039-.247-.039-.364 0-.053.019-.101.048-.139.084-.04.039-.07.084-.089.134-.042.116-.042.241 0 .358.019.049.049.095.089.134.039.037.086.065.139.084.117.038.247.038.364 0 .053-.019.1-.047.139-.084.039-.039.069-.084.088-.134.022-.058.033-.118.031-.179zM14.189 21.638l.017.04c.007-.014.012-.027.019-.04s.013-.027.021-.039l.421-.664c.008-.011.016-.019.024-.021.011-.003.023-.004.035-.004h.124v1.081h-.147V21.163c0-.013-.001-.025 0-.037l-.423.674c-.005.01-.014.019-.025.025s-.023.009-.036.009h-.024c-.013 0-.025-.003-.036-.009s-.019-.015-.025-.025l-.435-.678v.867h-.142v-1.078h.124c.012-.001.023.001.035.004.01.004.018.012.023.021l.43.665c.008.012.016.025.021.039zM15.772 21.584v.405h-.165V20.91h.367c.069-.001.138.007.205.024.053.013.103.036.145.067.037.029.065.065.082.106.019.044.029.091.028.138.001.047-.01.094-.03.138-.02.041-.05.078-.089.108-.042.032-.092.057-.146.072-.064.018-.131.026-.198.025l-.199-.003zm0-.116h.199c.043 0 .086-.005.128-.016.034-.01.065-.026.092-.047.025-.02.044-.044.056-.072.013-.029.02-.06.02-.091.002-.03-.004-.06-.017-.088s-.032-.053-.058-.074c-.063-.043-.142-.063-.221-.058h-.199v.445zM17.984 21.99h-.13c-.013 0-.026-.003-.036-.01-.009-.007-.017-.015-.021-.025l-.112-.261h-.562l-.116.261c-.004.01-.011.018-.021.024-.01.007-.024.011-.037.011h-.13l.494-1.081h.171l.5 1.081zm-.815-.401h.464l-.196-.44c-.015-.033-.027-.067-.037-.102l-.019.056c-.006.017-.012.033-.018.046l-.194.439zM18.695 20.915c.01.005.018.011.025.019l.72.815v-.839h.147v1.081h-.082c-.012 0-.023-.002-.034-.006s-.019-.012-.026-.02l-.719-.814c.001.012.001.025 0 .037s0 .023 0 .033v.77h-.147V20.91h.087c.01 0 .02.001.03.005zM20.801 21.56v.429h-.165v-.429l-.455-.651h.147c.013-.001.025.003.035.009.009.007.016.015.022.024l.285.42c.012.018.021.034.03.05s.015.031.021.046l.021-.047c.008-.017.017-.033.028-.049l.281-.423c.006-.008.013-.016.021-.023.01-.007.022-.011.035-.011h.149l-.456.654zM14.108 19.096c.072.008.144.014.217.02 1.111-.432 2.05-1.138 2.701-2.031s.985-1.933.959-2.99l-1.224-1.063c.249 1.125.132 2.288-.336 3.359s-1.271 2.008-2.317 2.705z"/><path  d="m13.671 19.047.033.006c1.118-.695 1.971-1.665 2.447-2.786s.555-2.339.226-3.499l-1.743-1.515c.705 1.245.989 2.638.818 4.018s-.788 2.689-1.781 3.775zM19.583 15.344c-.296 1.161-1.015 2.209-2.051 2.986-.302.228-.629.432-.975.608.843-.215 1.618-.596 2.266-1.113s1.149-1.156 1.467-1.868l-.707-.614z"/><path  d="m19.305 15.173-1.007-.875c-.019.997-.346 1.972-.945 2.822s-1.45 1.546-2.463 2.014h.005c.226 0 .451-.012.676-.035.947-.336 1.784-.87 2.435-1.555s1.098-1.5 1.299-2.371zM13.816 10.615 12.615 9.57c-1.074.36-1.997.994-2.649 1.818s-1.003 1.8-1.006 2.8c.004 1.105.432 2.177 1.216 3.047s1.88 1.487 3.114 1.755c1.101-1.166 1.746-2.607 1.841-4.113s-.366-2.999-1.315-4.262zM22.08 15.012c-.004-1.311-.606-2.567-1.673-3.494s-2.513-1.449-4.022-1.453c-.697-.001-1.389.111-2.039.33l7.353 6.388c.252-.565.381-1.165.38-1.771z"/></symbol><symbol id="icon-logo-two" viewBox="0 0 32 32"><path  d="M15.129 8.799h-.041c-.063-.004-.127-.005-.19-.007h-.137c-.12 0-.242.003-.364.009-.009-.001-.018-.001-.027 0-1.1.062-2.178.337-3.175.81l-.131.063v6.684l.305-.104c.268-.092.554-.175.849-.252.799-.205 1.619-.314 2.444-.325v.878c-.109.001-.215.004-.322.009h-.025c-.635.035-1.264.131-1.88.289-.78.195-1.533.489-2.24.873V9.153c.735-.428 1.526-.75 2.35-.956.724-.187 1.468-.283 2.215-.286h.129c.154.004.305.011.446.021.372.026.741.085 1.104.176v.864c-.352-.082-.709-.136-1.069-.161-.007-.001-.015-.001-.022-.002-.075-.006-.149-.013-.219-.013zm1.521.884c.192.015.39.021.591.021.785-.003 1.567-.103 2.328-.299.78-.196 1.532-.49 2.239-.874v8.42c-.735.428-1.526.75-2.351.956-.724.186-1.468.282-2.215.285-.566.005-1.13-.062-1.68-.198V9.52c.13.03.263.058.399.081.223.038.458.065.687.082zm4.285.065-.305.103c-.281.094-.564.179-.849.254-.829.213-1.682.322-2.538.325-.199 0-.383-.005-.56-.017l-.244-.016v6.876l.209.018c.194.017.394.025.596.025.674-.003 1.346-.09 1.999-.259.538-.135 1.061-.323 1.562-.561l.131-.063V9.747zM10.789 20.657c-.044-.046-.097-.081-.155-.105s-.121-.035-.184-.032c-.067-.001-.134.012-.196.037-.057.023-.109.057-.153.101s-.077.096-.098.154c-.024.06-.036.125-.035.19v1.145c-.003.081.013.161.045.235.027.059.066.111.115.154.046.039.1.066.157.081.056.016.113.024.171.024.064.001.127-.013.185-.04.057-.025.109-.061.153-.106.043-.044.076-.097.1-.154s.037-.12.037-.183v-.128h-.299v.102c.001.035-.005.07-.018.102-.01.024-.025.046-.044.064-.019.015-.04.026-.063.033-.02.007-.041.01-.063.011-.027.003-.054-.001-.079-.012s-.046-.028-.062-.05c-.028-.046-.042-.099-.04-.154v-1.068c-.002-.059.011-.118.037-.171.016-.024.038-.043.063-.056s.055-.017.083-.013c.026-.001.051.004.075.016s.043.028.059.049c.034.044.051.098.05.154v.099h.296v-.117c.001-.069-.012-.137-.037-.2-.022-.06-.056-.115-.1-.161zM12.567 20.644c-.095-.081-.216-.125-.341-.126-.061 0-.121.011-.179.032s-.112.053-.158.094c-.05.045-.089.099-.116.16-.03.07-.045.146-.044.222v1.099c-.002.077.013.154.044.225.027.059.067.111.116.154.046.042.1.075.158.097.057.021.118.032.179.032s.121-.011.179-.032c.06-.022.114-.054.162-.097s.086-.095.113-.154c.031-.071.046-.148.044-.225v-1.099c.001-.076-.013-.152-.044-.222-.027-.061-.065-.115-.113-.16zm-.14 1.481c.002.029-.002.059-.012.086s-.027.052-.048.073c-.04.033-.089.051-.141.051s-.101-.018-.141-.051c-.021-.02-.037-.045-.048-.073s-.014-.057-.012-.086v-1.099c-.003-.029.002-.059.012-.086s.027-.052.048-.073c.04-.033.089-.051.141-.051s.101.018.141.051c.021.02.037.045.048.073s.014.057.012.086v1.099zM14.903 22.615v-2.08h-.288l-.378 1.101h-.005l-.381-1.101h-.285v2.08h.297V21.35h.005l.291.894h.148l.293-.894h.005v1.265h.297zM16.591 20.681c-.046-.051-.104-.09-.168-.114-.07-.023-.142-.034-.215-.032h-.441v2.08h.296v-.812h.153c.092.004.184-.015.267-.057.067-.037.124-.092.163-.159.034-.055.057-.117.068-.181.012-.078.017-.157.016-.236.003-.1-.007-.2-.029-.297-.02-.072-.057-.138-.109-.191zm-.153.634c-.001.038-.011.075-.027.108-.017.032-.044.058-.076.073-.044.02-.092.029-.14.026h-.135v-.707h.153c.046-.002.092.007.134.026.031.018.055.044.07.077.016.037.025.076.026.116v.138c0 .048.003.098 0 .143h-.003zM17.995 20.535h-.243l-.458 2.08h.296l.087-.447h.404l.087.447h.296l-.47-2.08zm-.274 1.35.146-.754h.005l.145.754h-.296zM19.909 21.788h-.005l-.448-1.253h-.285v2.08h.296v-1.251h.006l.453 1.251h.279v-2.08h-.296v1.253zM21.72 20.535l-.238.827h-.006l-.238-.827h-.314l.407 1.201v.879h.296v-.879l.407-1.201h-.314zM9.962 23.202h.143v.401h.097v-.401h.142v-.082h-.382v.082zM11.163 23.12l-.187.483h.103l.04-.11h.192l.041.11h.105l-.192-.483h-.103zm-.015.292.066-.179.066.179h-.131zM12.35 23.425h.112v.062c-.033.026-.073.04-.115.041-.019.001-.039-.003-.057-.011s-.033-.02-.046-.036c-.026-.037-.038-.081-.036-.126 0-.107.047-.161.139-.161.024-.002.049.004.069.018s.034.035.04.059l.095-.018c-.021-.094-.089-.142-.205-.142-.062-.002-.122.021-.169.062-.024.024-.043.053-.055.085s-.017.066-.014.101c-.003.066.019.131.062.181.024.024.052.043.084.056s.066.017.099.015c.076.002.149-.025.205-.077v-.19h-.209v.081zM13.562 23.12h-.098v.483h.338v-.082h-.241v-.401zM14.586 23.12h-.098v.483h.098v-.483zM15.588 23.443l-.198-.322h-.095v.483h.091v-.316l.194.316h.097v-.483h-.089v.322zM16.494 23.39h.241v-.082h-.241v-.106h.259v-.082h-.357v.483h.367v-.082h-.269v-.131zM18.69 23.311h-.19v-.19h-.097v.483h.097v-.211h.19v.211h.097v-.483h-.097v.19zM19.602 23.39h.241v-.082h-.241v-.106h.26v-.082h-.357v.483h.366v-.082h-.269v-.131zM20.837 23.39c.084-.013.127-.058.127-.134.002-.021-.001-.041-.009-.06s-.022-.035-.038-.047c-.044-.022-.093-.032-.141-.028h-.205v.483h.097v-.202h.019c.021-.001.041.002.06.011.014.009.026.021.034.035l.105.154h.116l-.059-.094c-.026-.047-.063-.086-.107-.116zm-.098-.066h-.072v-.121h.076c.033-.003.067.001.099.012.007.006.013.014.016.023s.005.018.005.028c0 .009-.003.019-.007.027s-.011.016-.018.021c-.032.01-.065.014-.099.012zM21.769 23.39h.241v-.082h-.241v-.106h.26v-.082h-.357v.483h.367v-.082h-.269v-.131z"/></symbol><symbol id="icon-logo-one" viewBox="0 0 32 32"><path d="m11.472 9.121 2.116 2.003-3.927-.002v9.717h10.264v-3.715l2.113 2V9.121H11.472zm8.36 7.767-5.998-5.679h5.998v5.679zm-1.863 2.529h-6.685v-6.535h.473v6.093h6.212v.443zm-5.106 2.715-.247.509-.247-.509h-.207l.36.678v.395h.187v-.395l.36-.678h-.206zm.31 1.073.087-.25h.416l.088.25h.195l-.406-1.073h-.167l-.405 1.073h.194zm.295-.845.155.445h-.311l.156-.445zm.983.419c-.027.041-.041.087-.041.136 0 .09.032.164.095.22s.149.084.255.084.198-.029.274-.086l.06.072h.208l-.158-.186c.062-.085.093-.193.093-.325h-.155c0 .072-.015.138-.045.197l-.207-.245.073-.053c.052-.037.089-.075.111-.112s.034-.079.034-.124c0-.068-.025-.125-.075-.17s-.114-.069-.192-.069c-.086 0-.155.025-.206.074s-.077.115-.077.199c0 .034.008.07.024.107s.046.082.088.134c-.08.057-.133.106-.16.148zm.485.237c-.053.04-.109.06-.169.06-.054 0-.096-.015-.128-.046s-.048-.071-.048-.121c0-.057.03-.109.088-.153l.023-.016.234.276zm-.193-.475c-.051-.062-.076-.114-.076-.155 0-.036.01-.066.031-.089s.048-.035.083-.035c.032 0 .059.01.08.03s.032.043.032.072c0 .042-.015.077-.046.104l-.023.018-.082.056zm1.747.583c.074-.064.116-.154.127-.268h-.186c-.01.077-.033.131-.07.164s-.092.049-.165.049c-.08 0-.141-.03-.183-.091s-.062-.149-.062-.265v-.095c.001-.114.023-.201.066-.26s.106-.089.187-.089c.07 0 .123.017.158.052s.059.089.068.167h.186c-.012-.117-.054-.208-.126-.273s-.168-.097-.286-.097c-.088 0-.166.021-.233.063s-.118.101-.154.178-.054.166-.054.268v.1c.001.099.02.186.055.26s.085.132.15.173c.065.04.141.06.226.06.122 0 .22-.032.294-.096zm1.096-.15c.036-.08.055-.172.055-.277v-.06c0-.105-.019-.196-.056-.275s-.089-.14-.157-.181c-.067-.042-.145-.063-.232-.063s-.165.021-.233.064c-.067.042-.12.103-.157.184s-.055.172-.055.277v.06c0 .103.019.193.056.272s.09.139.158.182c.068.042.146.063.233.063s.166-.021.233-.063c.068-.043.12-.104.156-.183zm-.2-.607c.045.063.068.154.068.273v.056c0 .121-.022.213-.067.276s-.108.094-.19.094-.145-.032-.192-.097-.069-.155-.069-.273v-.062c.001-.115.024-.205.069-.268s.109-.095.189-.095c.083 0 .146.032.191.095z"/></symbol><symbol id="icon-astronaut" viewBox="0 0 32 32"><path fill="#2196f3" style="fill:var(--color2, #2196f3)" d="M31.974 4.524c-.063-.193-.229-.333-.43-.363l-1.91-.278-.855-1.731c-.179-.365-.777-.365-.956 0l-.855 1.731-1.91.278c-.201.029-.367.17-.431.363-.062.193-.011.405.135.547l1.383 1.348-.326 1.903c-.034.2.048.402.212.522.166.121.382.135.562.04l1.709-.899 1.709.899c.078.041.164.061.249.061.11 0 .221-.034.314-.102.164-.119.246-.322.212-.522l-.326-1.903 1.383-1.348c.145-.142.197-.354.135-.547zm-2.463 1.327c-.125.122-.183.299-.153.472l.191 1.114-1-.526c-.078-.041-.163-.061-.249-.061s-.17.02-.249.061l-1.001.526.191-1.114c.03-.173-.028-.349-.153-.472l-.81-.789 1.119-.163c.174-.025.324-.134.402-.292l.5-1.013.5 1.013c.078.157.228.267.402.292l1.119.163-.809.789zM26.134 20.522h-1.067v1.067h1.067v-1.067zM26.134 22.656h-1.067v1.067h1.067v-1.067zM27.2 21.589h-1.067v1.067H27.2v-1.067zM25.067 21.589H24v1.067h1.067v-1.067zM22.4 26.389h-1.067v1.067H22.4v-1.067zM22.4 28.522h-1.067v1.067H22.4v-1.067zM23.467 27.456H22.4v1.067h1.067v-1.067zM21.333 27.456h-1.067v1.067h1.067v-1.067zM16 24.256h-1.067v1.067H16v-1.067zM16 26.389h-1.067v1.067H16v-1.067zM17.067 25.322H16v1.067h1.067v-1.067zM14.933 25.322h-1.067v1.067h1.067v-1.067zM5.867 6.122H4.8v1.067h1.067V6.122zM5.867 8.255H4.8v1.067h1.067V8.255z"/><path fill="#2196f3" style="fill:var(--color2, #2196f3)" d="M6.933 7.189H5.866v1.067h1.067V7.189zM4.8 7.189H3.733v1.067H4.8V7.189z"/><path fill="#212121" style="fill:var(--color3, #212121)" d="M24.715 14.159c-.287-.388-.709-.637-1.188-.705-.481-.068-.956.058-1.34.352l-1.252.96-1.898 1.417-1.358-.541c2.421-1.086 4.114-3.508 4.114-6.32 0-3.823-3.123-6.933-6.961-6.933s-6.961 3.11-6.961 6.933c0 1.386.414 2.674 1.12 3.758l-2.764-.024h-.005c-.009 0-.015.004-.023.005-.053.002-.105.013-.155.031-.013.005-.026.008-.038.013-.006.003-.013.003-.019.006l-3.233 1.596c-.001 0-.001 0-.001.001l-1.893.911c-.021.009-.042.021-.063.035-.755.502-1.012 1.489-.598 2.295.22.429.595.745 1.056.889.178.055.359.083.539.083.29 0 .577-.071.839-.211l1.388-.738 2.264-1.169 1.357-.008L2.2 22.211c-.001.001-.001.001-.002.001L.859 23.545c-.316.315-.49.732-.49 1.178s.174.863.49 1.179c.325.323.752.485 1.179.485s.854-.162 1.18-.485l1.314-1.309 1.741-1.3.901.897-1.762 1.754c0 .001-.001.001-.002.001l-1.339 1.333c-.316.315-.49.732-.49 1.178s.174.863.49 1.179c.325.323.753.485 1.18.485s.855-.162 1.18-.485l3.482-3.467c.001-.001.001-.001.001-.002l1.01-1-.004-.004c.006-.006.015-.009.022-.015l5.166-5.658 3.471.494c.025.004.05.005.075.005.065 0 .127-.015.187-.038.018-.006.033-.015.05-.023.019-.01.039-.015.058-.027l3.213-2.133c.012-.008.018-.021.029-.029.013-.01.029-.014.041-.026l1.271-1.191c.662-.62.753-1.635.212-2.362zM2.13 17.77c-.173.093-.37.111-.558.052-.187-.058-.338-.186-.427-.358-.161-.314-.068-.695.214-.902l1.314-.632.449 1.313-.992.527zm3.498-1.828-1.548.8-.439-1.283 2.027-1.001-.04 1.484zm15.099-6.62c0 .918-.219 1.785-.599 2.559l-4.181-1.899c-.044-.573-.341-1.075-.788-1.388l1.464-4.86c2.378.756 4.105 2.974 4.105 5.588zm-11.789 0c0-3.235 2.644-5.867 5.894-5.867.253 0 .5.021.745.052l-1.432 4.754c-.019-.001-.037-.006-.057-.006-1.033 0-1.873.837-1.873 1.867s.84 1.867 1.873 1.867c.694 0 1.294-.383 1.618-.945l3.862 1.755c-1.075 1.446-2.795 2.39-4.737 2.39-3.25 0-5.894-2.632-5.894-5.867zm5.956.8c0 .441-.362.8-.806.8s-.806-.359-.806-.8c0-.441.362-.8.806-.8s.806.359.806.8zM2.465 25.146c-.236.234-.619.234-.854.001-.114-.114-.176-.263-.176-.423s.062-.309.176-.421l.962-.959.851.848-.959.955zm3.214 3.734c-.236.234-.619.235-.855.001-.114-.114-.176-.263-.176-.423s.062-.309.176-.421l.963-.959.852.848-.96.955zm3.481-3.469c-.001 0-.001 0-.002.001l-1.765 1.76-.852-.848 1.763-1.755s.001-.001.002-.001c.04-.04.065-.088.09-.135.007-.014.02-.026.026-.04.017-.041.019-.085.026-.129.003-.025.014-.047.014-.073 0-.036-.013-.07-.02-.106-.006-.032-.006-.065-.019-.095-.02-.05-.055-.094-.091-.138-.01-.012-.014-.027-.025-.038h-.001c-.001 0-.001-.002-.001-.002l-1.607-1.6c-.017-.017-.039-.024-.058-.038-.028-.022-.055-.042-.087-.058-.03-.015-.061-.024-.093-.033-.034-.01-.067-.017-.103-.02-.033-.002-.063.001-.095.005-.036.004-.069.009-.104.02-.034.011-.063.027-.094.045-.02.011-.042.015-.061.029L4.23 23.486l-.901-.897 2.399-2.386 4.361 4.289-.928.919zm6.819-7.017c-.015-.002-.03.004-.045.003-.039-.002-.076.001-.115.007-.03.005-.059.011-.088.021-.034.012-.065.028-.097.047-.03.018-.057.037-.083.061-.013.011-.028.017-.04.029l-4.698 5.146-4.328-4.257 2.833-2.818c.209-.208.21-.546.002-.755-.105-.105-.243-.157-.381-.156v-.001l-2.219.013.028-1.607 3.104.027c1.265 1.294 3.029 2.101 4.981 2.101.437 0 .864-.045 1.279-.123.04.032.079.065.13.085l2.41.96.152.758.178.885-3.003-.427zm4.041.178-.313-1.558 1.446-1.08.947 1.257-2.08 1.381zm3.754-2.831-.838.785-.931-1.236.831-.637c.155-.119.351-.168.543-.143.193.027.364.128.48.284.217.292.18.699-.085.947z"/><path fill="#212121" style="fill:var(--color3, #212121)" d="m13.602 18.544-2.143-2.133c-.207-.207-.545-.207-.753 0l-2.142 2.133c-.1.101-.157.236-.157.378s.056.278.157.378l2.142 2.133c.104.103.241.155.377.155s.273-.052.376-.155l2.143-2.133c.1-.1.157-.236.157-.378s-.057-.278-.157-.378zm-2.519 1.759-1.387-1.381 1.387-1.381 1.387 1.381-1.387 1.381zM17.164 5.071l-.258 1.036c.071.018 1.738.452 1.738 2.149h1.067c0-2.017-1.666-2.965-2.547-3.185zM19.711 9.322h-1.067v1.067h1.067V9.322z"/></symbol><symbol id="icon-diagram" viewBox="0 0 32 32"><path fill="#2196f3" style="fill:var(--color2, #2196f3)" d="M14.926 14.965h1.066v4.798h-1.066v-4.797zM19.19 17.097h1.066v2.665H19.19v-2.665zM10.661 18.696h1.066v1.066h-1.066v-1.066zM7.463 18.163h1.066v1.599H7.463v-1.599z"/><path fill="#212121" style="fill:var(--color3, #212121)" d="M1.599 28.291h25.587c.883 0 1.599-.716 1.599-1.599V24.56c0-.883-.716-1.599-1.599-1.599h-.533V9.668L29.681 6.8c.703.346 1.553.136 2.013-.499s.396-1.508-.152-2.068-1.42-.644-2.065-.198c-.644.446-.873 1.292-.542 2.002L26.654 8.2V6.97c0-.883-.716-1.599-1.599-1.599H3.733c-.883 0-1.599.716-1.599 1.599v15.992h-.533c-.883 0-1.599.716-1.599 1.599v2.132c0 .883.716 1.599 1.599 1.599zM30.384 4.837c.294 0 .533.239.533.533s-.239.533-.533.533c-.294 0-.533-.239-.533-.533s.239-.533.533-.533zM3.198 6.969c0-.294.239-.533.533-.533h21.322c.294 0 .533.239.533.533v2.239l-1.066 1.013V8.035c0-.294-.239-.533-.533-.533H4.797c-.294 0-.533.239-.533.533v13.326c0 .294.239.533.533.533h19.19c.294 0 .533-.239.533-.533v-9.674l1.066-1.01v12.284H3.198V6.969zm4.798 6.93c-.721-.002-1.354.478-1.546 1.174s.105 1.433.725 1.801c.62.368 1.41.276 1.928-.226l1.853.93c.215.108.476.057.636-.123l3.939-4.431 3.872 2.901c.208.156.498.139.686-.039l3.365-3.188v8.131H5.33V8.569h18.124v2.66l-3.771 3.572-3.904-2.927c-.222-.166-.534-.135-.718.072l-3.993 4.493-1.493-.746c.011-.064.018-.129.02-.193 0-.883-.716-1.599-1.599-1.599zm.533 1.599c0 .294-.239.533-.533.533s-.533-.239-.533-.533c0-.294.239-.533.533-.533s.533.239.533.533zm3.198 8.528h5.331v.533c0 .294-.239.533-.533.533h-4.264c-.294 0-.533-.239-.533-.533v-.533zm-10.661.534c0-.294.239-.533.533-.533h9.062v.533c0 .883.716 1.599 1.599 1.599h4.264c.883 0 1.599-.716 1.599-1.599v-.533h9.062c.294 0 .533.239.533.533v2.132c0 .294-.239.533-.533.533H1.598c-.294 0-.533-.239-.533-.533V24.56z"/></symbol><symbol id="icon-clock" viewBox="0 0 32 32"><path fill="#212121" style="fill:var(--color3, #212121)" d="M31.297 15.301C31.295 6.849 24.442-.002 15.989 0S.686 6.855.688 15.308c.001 6.658 4.307 12.551 10.649 14.576.061.019.124.029.187.029.121 0 .239-.032.342-.094.135-.08.236-.207.283-.356l3.865-12.25c1.057-.005 1.909-.866 1.903-1.923s-.866-1.909-1.923-1.903c-.284.001-.565.067-.82.191l-5.106-5.107c-.253-.245-.657-.238-.902.016-.239.247-.239.639 0 .886l5.103 5.109c-.392.799-.168 1.764.536 2.309l-3.683 11.673C3.844 25.783.118 17.71 2.799 10.432S13.553-.572 20.831 2.109s11.004 10.754 8.323 18.032c-1.31 3.556-4.001 6.431-7.462 7.973l-.398-1.874c-.073-.344-.411-.565-.756-.492-.109.023-.209.074-.292.148l-3.837 3.426c-.263.234-.287.637-.052.9.076.085.174.149.283.184l4.899 1.563c.335.108.694-.077.802-.412.034-.106.04-.219.017-.328l-.391-1.839c5.664-2.388 9.342-7.942 9.329-14.089zm-15.305-.637c.352 0 .638.286.638.638s-.286.638-.638.638c-.352 0-.638-.285-.638-.638s.285-.638.638-.638zm2.101 14.864 2.184-1.948.603 2.84-2.787-.892z"/><path fill="#2196f3" style="fill:var(--color2, #2196f3)" d="M15.354 3.185V4.46c0 .352.285.638.638.638s.638-.285.638-.638V3.185c0-.352-.286-.638-.638-.638s-.638.286-.638.638zM3.876 14.664c-.352 0-.638.286-.638.638s.285.638.638.638h1.275c.352 0 .638-.285.638-.638s-.285-.638-.638-.638H3.876zM28.108 15.939c.352 0 .638-.285.638-.638s-.285-.638-.638-.638h-1.275c-.352 0-.638.286-.638.638s.286.638.638.638h1.275z"/></symbol><symbol id="icon-antenna" viewBox="0 0 32 32"><path fill="#212121" style="fill:var(--color3, #212121)" d="m30.773 22.098-8.443-8.505.937-4.615c.242.094.499.144.758.146h.006c1.192.014 2.17-.941 2.184-2.133s-.941-2.17-2.133-2.184c-1.192-.014-2.17.941-2.184 2.133-.003.255.039.509.125.749l-4.96.605L8.972.161C8.873.06 8.737.002 8.595.001c-.14.001-.274.056-.373.155L6.709 1.66c-.208.208-.208.546 0 .754l.814.826C4.37 9.038 5.394 16.218 10.042 20.903c.043.041.092.074.146.098-.034.18-.051.364-.052.547v6.187h-6.4c-1.472.002-2.665 1.195-2.667 2.667v1.067c0 .295.239.533.533.533h24.533c.295 0 .533-.239.533-.533v-1.067c-.002-1.472-1.195-2.665-2.667-2.667h-6.4v-2.742c1.003.21 2.024.317 3.049.32 2.458-.003 4.877-.615 7.04-1.783l.818.823c.099.101.235.159.377.16.14-.001.274-.056.373-.155l1.513-1.504c.208-.208.208-.546 0-.754zM23.28 6.233c.418-.415 1.093-.414 1.508.004s.414 1.093-.004 1.508c-.2.199-.47.31-.752.31h-.003c-.589-.003-1.064-.483-1.061-1.072.002-.282.115-.552.314-.751h-.002zm-1.256 3.505-.598 2.946-1.175-1.182 1.774-1.763zm-.605-.902-1.92 1.909-1.485-1.493 3.405-.415zM24.004 28.8c.884 0 1.6.716 1.6 1.6v.533H2.137V30.4c0-.884.716-1.6 1.6-1.6h20.267zm-7.467-2.133v1.067h-5.333v-1.067h5.333zM11.204 25.6v-4.053c0-1.294 1.196-2.347 2.667-2.347s2.667 1.053 2.667 2.347V25.6h-5.333zm6.4-1.696v-2.357c0-1.882-1.675-3.413-3.733-3.413-1.331-.02-2.576.657-3.281 1.786C6.532 15.646 5.619 9.275 8.311 4.033l18.602 18.708c-2.872 1.461-6.165 1.873-9.309 1.163zm11.289-.684L7.836 2.039l.755-.752 7.935 7.98c.004 0 .006.007.01.01l13.115 13.191-.757.752z"/><path fill="#2196f3" style="fill:var(--color2, #2196f3)" d="M13.876 20.267h-.005c-.884-.001-1.601.714-1.602 1.598s.714 1.601 1.598 1.602h.005c.884.001 1.601-.714 1.602-1.598s-.714-1.601-1.598-1.602zm.373 1.978c-.1.1-.236.156-.378.155-.295-.002-.532-.242-.531-.536.001-.141.057-.276.157-.375s.233-.154.373-.155c.295.002.532.241.53.536-.001.141-.057.276-.157.375h.005z"/></symbol><symbol id="icon-envelope" viewBox="0 0 32 32"><path  d="M29 4H3C1.346 4 0 5.346 0 7v18c0 1.654 1.346 3 3 3h26c1.654 0 3-1.346 3-3V7c0-1.654-1.346-3-3-3zm0 2c.136 0 .265.028.383.077L16 17.676 2.617 6.077C2.735 6.028 2.864 6 3 6h26zm0 20H3c-.552 0-1-.448-1-1V8.19l13.345 11.565c.188.163.422.244.655.244s.467-.081.655-.244L30 8.19V25c0 .552-.448 1-1 1z"/></symbol><symbol id="icon-smartphone" viewBox="0 0 32 32"><path  d="M23 0H9C7.346 0 6 1.346 6 3v26c0 1.654 1.346 3 3 3h14c1.654 0 3-1.346 3-3V3c0-1.654-1.346-3-3-3zM9 2h14c.552 0 1 .448 1 1v21H8V3c0-.552.448-1 1-1zm14 28H9c-.552 0-1-.448-1-1v-3h16v3c0 .552-.448 1-1 1z"/><path  d="M10.707 27.478c.391.365.391.956 0 1.321s-1.024.365-1.414 0c-.391-.365-.391-.956 0-1.321s1.024-.365 1.414 0z"/></symbol><symbol id="icon-linkedin" viewBox="0 0 32 32"><path  d="M23.269 23.273v-.001h.004v-5.335c0-2.61-.562-4.62-3.613-4.62-1.467 0-2.451.805-2.853 1.568h-.042v-1.324h-2.893v9.711h3.012v-4.809c0-1.266.24-2.49 1.808-2.49 1.545 0 1.568 1.445 1.568 2.572v4.728h3.009zM8.967 13.562h3.016v9.711H8.967v-9.711zM10.474 8.727c-.964 0-1.747.782-1.747 1.747s.782 1.763 1.747 1.763c.964 0 1.747-.799 1.747-1.763s-.783-1.747-1.747-1.747z"/></symbol><symbol id="icon-facebook" viewBox="0 0 32 32"><path  d="M18.422 11.142h1.328V8.829c-.229-.031-1.017-.102-1.935-.102-1.915 0-3.226 1.204-3.226 3.418v2.037h-2.113v2.585h2.113v6.505h2.59v-6.505h2.027l.322-2.585h-2.35v-1.781c.001-.747.202-1.259 1.243-1.259z"/></symbol><symbol id="icon-twitter" viewBox="0 0 32 32"><path  d="M23.273 11.49c-.541.237-1.117.394-1.718.471.618-.369 1.09-.949 1.312-1.648-.576.344-1.213.586-1.891.722-.547-.583-1.327-.944-2.178-.944-1.651 0-2.98 1.34-2.98 2.983 0 .236.02.464.069.68-2.479-.121-4.673-1.309-6.146-3.119-.257.446-.408.957-.408 1.507 0 1.033.532 1.948 1.325 2.478-.479-.009-.949-.148-1.347-.367v.033c0 1.449 1.034 2.653 2.389 2.93-.243.066-.507.098-.782.098-.191 0-.384-.011-.565-.051.386 1.181 1.483 2.049 2.786 2.077-1.015.794-2.303 1.272-3.697 1.272-.245 0-.479-.011-.714-.041 1.321.852 2.886 1.338 4.575 1.338 5.487 0 8.487-4.545 8.487-8.485 0-.132-.005-.259-.011-.385.592-.42 1.089-.944 1.495-1.548z"/></symbol><symbol id="icon-instagram" viewBox="0 0 32 32"><path  d="M23.258 13.004c-.034-.773-.159-1.304-.338-1.765-.185-.489-.469-.926-.841-1.29-.364-.369-.804-.656-1.287-.838-.463-.179-.992-.304-1.764-.338-.779-.037-1.026-.046-3.001-.046s-2.222.009-2.998.043c-.773.034-1.304.159-1.764.338-.489.185-.926.469-1.29.841-.369.364-.656.804-.838 1.287-.179.463-.304.992-.338 1.764-.037.779-.045 1.026-.045 3.001s.008 2.222.043 2.998c.034.773.159 1.304.338 1.765.185.489.472.926.841 1.29.364.369.804.656 1.287.838.463.179.992.304 1.765.338.776.034 1.023.043 2.998.043s2.222-.008 2.998-.043c.773-.034 1.304-.159 1.764-.338.978-.378 1.75-1.151 2.128-2.128.179-.463.304-.992.338-1.765.034-.776.043-1.023.043-2.998s-.003-2.222-.037-2.998zm-1.309 5.938c-.031.71-.151 1.094-.25 1.35-.244.634-.747 1.137-1.381 1.381-.256.099-.642.219-1.35.25-.767.034-.997.043-2.938.043s-2.174-.008-2.938-.043c-.71-.031-1.094-.15-1.35-.25-.315-.116-.602-.301-.835-.543-.242-.236-.426-.52-.543-.835-.099-.256-.219-.642-.25-1.35-.034-.767-.043-.997-.043-2.938s.008-2.174.043-2.938c.031-.71.151-1.094.25-1.35.117-.315.301-.602.546-.835.236-.242.52-.426.835-.543.256-.099.642-.219 1.35-.25.767-.034.997-.043 2.938-.043 1.944 0 2.174.008 2.938.043.71.031 1.094.151 1.35.25.315.116.602.301.835.543.241.236.426.52.543.835.099.256.219.642.25 1.35.034.767.043.997.043 2.938s-.009 2.168-.043 2.935z"/><path  d="M16.027 12.265c-2.063 0-3.736 1.674-3.736 3.736s1.674 3.736 3.736 3.736c2.063 0 3.736-1.674 3.736-3.736s-1.674-3.736-3.736-3.736zm0 6.16c-1.338 0-2.424-1.085-2.424-2.424s1.086-2.424 2.424-2.424c1.338 0 2.424 1.085 2.424 2.424s-1.085 2.424-2.424 2.424zM20.784 12.117c0 .482-.391.872-.872.872s-.872-.391-.872-.872c0-.482.391-.872.872-.872s.872.39.872.872z"/></symbol><symbol id="btn-modal" viewBox="0 0 11 11"><path d="M11 1.10786L9.89214 0L5.5 4.39214L1.10786 0L0 1.10786L4.39214 5.5L0 9.89214L1.10786 11L5.5 6.60786L9.89214 11L11 9.89214L6.60786 5.5L11 1.10786Z" /></symbol><symbol id="form-email" viewBox="0 0 32 32"><path d="M26.667 5.333h-21.333c-1.467 0-2.653 1.2-2.653 2.667l-0.013 16c0 1.467 1.2 2.667 2.667 2.667h21.333c1.467 0 2.667-1.2 2.667-2.667v-16c0-1.467-1.2-2.667-2.667-2.667zM26.133 11l-9.427 5.893c-0.427 0.267-0.987 0.267-1.413 0l-9.427-5.893c-0.333-0.213-0.533-0.573-0.533-0.96 0-0.893 0.973-1.427 1.733-0.96l8.933 5.587 8.933-5.587c0.76-0.467 1.733 0.067 1.733 0.96 0 0.387-0.2 0.747-0.533 0.96z"></path></symbol><symbol id="form-phone" viewBox="0 0 32 32"><path d="M24.882 19.773l-3.268-0.373c-0.785-0.090-1.557 0.18-2.11 0.733l-2.367 2.367c-3.641-1.853-6.626-4.825-8.478-8.478l2.38-2.38c0.553-0.553 0.823-1.325 0.733-2.11l-0.373-3.242c-0.154-1.299-1.248-2.277-2.56-2.277h-2.226c-1.454 0-2.663 1.209-2.573 2.663 0.682 10.987 9.469 19.761 20.443 20.443 1.454 0.090 2.663-1.119 2.663-2.573v-2.226c0.013-1.3-0.965-2.393-2.264-2.547z"></path></symbol><symbol id="form-person" viewBox="0 0 32 32"><path d="M16 16c2.947 0 5.333-2.387 5.333-5.333s-2.387-5.333-5.333-5.333c-2.947 0-5.333 2.387-5.333 5.333s2.387 5.333 5.333 5.333zM16 18.667c-3.56 0-10.667 1.787-10.667 5.333v1.333c0 0.733 0.6 1.333 1.333 1.333h18.667c0.733 0 1.333-0.6 1.333-1.333v-1.333c0-3.547-7.107-5.333-10.667-5.333z"></path></symbol><symbol id="checked"  viewBox="0 0 42 32"><path fill="#fff" style="fill: var(--color1, #fff); stroke: var(--color1, #fff)" stroke="#fff" stroke-linejoin="miter" stroke-linecap="butt" stroke-miterlimit="4" stroke-width="0.64" d="M6.263 15.205l-0.22-0.21-3.307 3.132 11.651 11.114 24.477-23.351-3.285-3.134-21.192 20.197-8.124-7.75z"></path></symbol><symbol id="icon-send" viewBox="0 0 32 32"><path d="M32 0l-32 18 10.227 3.788 15.773-14.788-11.998 16.186 0.010 0.004-0.012-0.004v8.814l5.735-6.691 7.265 2.691 5-28z"></path></symbol><symbol id="icon-menu" viewBox="0 0 32 32"><path d="M6.4 11.733v-2.133h19.2v2.133h-19.2zM6.4 17.067h19.2v-2.133h-19.2v2.133zM6.4 22.4h19.2v-2.133h-19.2v2.133z"></path></symbol><symbol id="icon-close-menu" viewBox="0 0 32 32"><path d="M23.733 10.304l-1.504-1.504-5.963 5.963-5.963-5.963-1.504 1.504 5.963 5.963-5.963 5.963 1.504 1.504 5.963-5.963 5.963 5.963 1.504-1.504-5.963-5.963 5.963-5.963z"></path></symbol></defs></svg>

